<svg width="25" height="25" viewBox="0 0 25 25" fill="none" xmlns="http://www.w3.org/2000/svg">
<path d="M23.625 16.9812C21.9167 16.9812 20.2639 16.7069 18.7222 16.2131C18.2361 16.0485 17.6944 16.1719 17.3194 16.5423L15.1389 19.2444C11.2083 17.3927 7.52778 13.895 5.56944 9.87598L8.27778 7.59902C8.65278 7.21495 8.76389 6.68 8.61111 6.19992C8.09722 4.67737 7.83333 3.04509 7.83333 1.35795C7.83333 0.617249 7.20833 0 6.45833 0H1.65278C0.902778 0 0 0.329199 0 1.35795C0 14.1007 10.7361 24.6899 23.625 24.6899C24.6111 24.6899 25 23.8258 25 23.0714V18.3391C25 17.5984 24.375 16.9812 23.625 16.9812Z" fill="white"/>
</svg>
